<?xml version="1.0" encoding="UTF-8"?>
<svg id="Calque_2" data-name="Calque 2" xmlns="http://www.w3.org/2000/svg" viewBox="0 0 491.77 145.36">
  <defs>
    <style>
      .cls-1 {
        fill: none;
        stroke: #fff;
        stroke-miterlimit: 10;
      }
    </style>
  </defs>
  <g id="Calque_1-2" data-name="Calque 1-2">
    <g>
      <g>
        <line class="cls-1" x1=".5" y1="145.36" x2=".5"/>
        <line class="cls-1" x1="7.53" x2="7.53" y2="145.36"/>
        <line class="cls-1" x1="45.67" y1="145.36" x2="45.67"/>
        <line class="cls-1" x1="59.74" x2="59.74" y2="145.36"/>
        <line class="cls-1" x1="90.84" y1="145.36" x2="90.84"/>
        <line class="cls-1" x1="111.94" x2="111.94" y2="145.36"/>
        <line class="cls-1" x1="136.01" y1="145.36" x2="136.01"/>
        <line class="cls-1" x1="164.14" x2="164.14" y2="145.36"/>
        <line class="cls-1" x1="181.18" y1="145.36" x2="181.18"/>
        <line class="cls-1" x1="216.34" x2="216.34" y2="145.36"/>
        <line class="cls-1" x1="226.35" y1="145.36" x2="226.35"/>
        <line class="cls-1" x1="268.55" x2="268.55" y2="145.36"/>
      </g>
      <g>
        <line class="cls-1" x1="484.24" y1="145.36" x2="484.24"/>
        <line class="cls-1" x1="491.27" x2="491.27" y2="145.36"/>
        <line class="cls-1" x1="432.66" y1="145.36" x2="432.66"/>
        <line class="cls-1" x1="446.73" x2="446.73" y2="145.36"/>
        <line class="cls-1" x1="381.08" y1="145.36" x2="381.08"/>
        <line class="cls-1" x1="402.18" x2="402.18" y2="145.36"/>
        <line class="cls-1" x1="329.5" y1="145.36" x2="329.5"/>
        <line class="cls-1" x1="357.63" x2="357.63" y2="145.36"/>
        <line class="cls-1" x1="277.93" y1="145.36" x2="277.93"/>
        <line class="cls-1" x1="313.09" x2="313.09" y2="145.36"/>
        <line class="cls-1" x1="226.35" y1="145.36" x2="226.35"/>
        <line class="cls-1" x1="268.55" x2="268.55" y2="145.36"/>
      </g>
    </g>
  </g>
</svg>